<mxfile host="65bd71144e">
    <diagram id="8e9nFKyLiUIi7JiJExTB" name="Page-1">
        <mxGraphModel dx="1807" dy="1317" grid="1" gridSize="10" guides="1" tooltips="1" connect="1" arrows="1" fold="1" page="1" pageScale="1" pageWidth="850" pageHeight="1100" math="0" shadow="0">
            <root>
                <mxCell id="0"/>
                <mxCell id="1" parent="0"/>
                <mxCell id="2" value="&lt;font style=&quot;font-size: 12px&quot; face=&quot;Helvetica&quot; color=&quot;#ffffff&quot;&gt;&lt;span id=&quot;docs-internal-guid-d50050bc-7fff-994a-3e60-8d328730251a&quot; style=&quot;background-color: transparent ; font-style: normal ; font-variant: normal ; text-decoration: none ; vertical-align: baseline&quot;&gt;:Livreur à domicile&lt;br&gt;&lt;/span&gt;&lt;/font&gt;" style="shape=umlActor;verticalLabelPosition=bottom;verticalAlign=top;html=1;" vertex="1" parent="1">
                    <mxGeometry x="120" y="160" width="40" height="80" as="geometry"/>
                </mxCell>
                <mxCell id="35" value=":Express Food" style="rounded=1;whiteSpace=wrap;html=1;" vertex="1" parent="1">
                    <mxGeometry x="260" y="180" width="120" height="60" as="geometry"/>
                </mxCell>
                <mxCell id="65" value="&lt;font style=&quot;font-size: 12px&quot; face=&quot;Helvetica&quot; color=&quot;#ffffff&quot;&gt;&lt;span id=&quot;docs-internal-guid-d50050bc-7fff-994a-3e60-8d328730251a&quot; style=&quot;background-color: transparent ; font-style: normal ; font-variant: normal ; text-decoration: none ; vertical-align: baseline&quot;&gt;:Système de géolocalisation&lt;br&gt;&lt;/span&gt;&lt;/font&gt;" style="shape=umlActor;verticalLabelPosition=bottom;verticalAlign=top;html=1;" vertex="1" parent="1">
                    <mxGeometry x="760" y="160" width="40" height="80" as="geometry"/>
                </mxCell>
                <mxCell id="67" value="&lt;font style=&quot;font-size: 12px&quot; face=&quot;Helvetica&quot; color=&quot;#ffffff&quot;&gt;&lt;span id=&quot;docs-internal-guid-d50050bc-7fff-994a-3e60-8d328730251a&quot; style=&quot;background-color: transparent ; font-style: normal ; font-variant: normal ; text-decoration: none ; vertical-align: baseline&quot;&gt;:Système d'autentication&lt;br&gt;&lt;/span&gt;&lt;/font&gt;" style="shape=umlActor;verticalLabelPosition=bottom;verticalAlign=top;html=1;" vertex="1" parent="1">
                    <mxGeometry x="518.78" y="160" width="40" height="80" as="geometry"/>
                </mxCell>
                <mxCell id="72" value="" style="endArrow=none;dashed=1;html=1;entryX=0.5;entryY=1;entryDx=0;entryDy=0;startArrow=none;" edge="1" parent="1" source="74" target="35">
                    <mxGeometry width="50" height="50" relative="1" as="geometry">
                        <mxPoint x="318.73" y="350" as="sourcePoint"/>
                        <mxPoint x="310" y="240" as="targetPoint"/>
                    </mxGeometry>
                </mxCell>
                <mxCell id="73" value="" style="endArrow=classic;html=1;entryX=0;entryY=0;entryDx=0;entryDy=0;" edge="1" parent="1" target="74">
                    <mxGeometry width="50" height="50" relative="1" as="geometry">
                        <mxPoint x="140" y="310" as="sourcePoint"/>
                        <mxPoint x="298.48" y="310" as="targetPoint"/>
                    </mxGeometry>
                </mxCell>
                <mxCell id="74" value="" style="rounded=0;whiteSpace=wrap;html=1;" vertex="1" parent="1">
                    <mxGeometry x="310" y="310" width="20" height="140" as="geometry"/>
                </mxCell>
                <mxCell id="75" value="" style="endArrow=none;dashed=1;html=1;entryX=0.5;entryY=1;entryDx=0;entryDy=0;" edge="1" parent="1" target="74">
                    <mxGeometry width="50" height="50" relative="1" as="geometry">
                        <mxPoint x="320" y="560" as="sourcePoint"/>
                        <mxPoint x="320" y="460" as="targetPoint"/>
                    </mxGeometry>
                </mxCell>
                <mxCell id="76" value="" style="endArrow=classic;html=1;entryX=-0.007;entryY=0.143;entryDx=0;entryDy=0;entryPerimeter=0;" edge="1" parent="1" target="74">
                    <mxGeometry width="50" height="50" relative="1" as="geometry">
                        <mxPoint x="140" y="330" as="sourcePoint"/>
                        <mxPoint x="308" y="330" as="targetPoint"/>
                    </mxGeometry>
                </mxCell>
                <mxCell id="77" value="" style="rounded=0;whiteSpace=wrap;html=1;" vertex="1" parent="1">
                    <mxGeometry x="528.78" y="310" width="20" height="100" as="geometry"/>
                </mxCell>
                <mxCell id="78" value="" style="endArrow=classic;html=1;exitX=0.986;exitY=0.092;exitDx=0;exitDy=0;exitPerimeter=0;entryX=1.176;entryY=0.892;entryDx=0;entryDy=0;entryPerimeter=0;" edge="1" parent="1" source="77" target="77">
                    <mxGeometry width="50" height="50" relative="1" as="geometry">
                        <mxPoint x="568.78" y="320" as="sourcePoint"/>
                        <mxPoint x="558.78" y="400" as="targetPoint"/>
                        <Array as="points">
                            <mxPoint x="648.78" y="320"/>
                            <mxPoint x="648.78" y="360"/>
                            <mxPoint x="648.78" y="399"/>
                        </Array>
                    </mxGeometry>
                </mxCell>
                <mxCell id="79" value="" style="endArrow=classic;html=1;exitX=0.995;exitY=0.067;exitDx=0;exitDy=0;exitPerimeter=0;entryX=0;entryY=0.091;entryDx=0;entryDy=0;entryPerimeter=0;" edge="1" parent="1" source="74" target="77">
                    <mxGeometry width="50" height="50" relative="1" as="geometry">
                        <mxPoint x="340" y="319.1" as="sourcePoint"/>
                        <mxPoint x="458.78" y="330" as="targetPoint"/>
                    </mxGeometry>
                </mxCell>
                <mxCell id="80" value="génèreSession()" style="text;html=1;align=center;verticalAlign=middle;resizable=0;points=[];autosize=1;strokeColor=none;fillColor=none;" vertex="1" parent="1">
                    <mxGeometry x="648.78" y="350" width="100" height="20" as="geometry"/>
                </mxCell>
                <mxCell id="82" value="envoieIdentifiants()" style="text;html=1;align=center;verticalAlign=middle;resizable=0;points=[];autosize=1;strokeColor=none;fillColor=none;" vertex="1" parent="1">
                    <mxGeometry x="373.78" y="300" width="120" height="20" as="geometry"/>
                </mxCell>
                <mxCell id="83" value="" style="endArrow=classic;html=1;exitX=-0.036;exitY=0.893;exitDx=0;exitDy=0;exitPerimeter=0;entryX=1.15;entryY=0.638;entryDx=0;entryDy=0;entryPerimeter=0;" edge="1" parent="1" source="77" target="74">
                    <mxGeometry width="50" height="50" relative="1" as="geometry">
                        <mxPoint x="350" y="329.1" as="sourcePoint"/>
                        <mxPoint x="341.20000000000005" y="399.31999999999994" as="targetPoint"/>
                    </mxGeometry>
                </mxCell>
                <mxCell id="84" value="retourneMission()" style="text;html=1;align=center;verticalAlign=middle;resizable=0;points=[];autosize=1;strokeColor=none;fillColor=none;" vertex="1" parent="1">
                    <mxGeometry x="378.78" y="380" width="110" height="20" as="geometry"/>
                </mxCell>
                <mxCell id="85" value="" style="endArrow=none;dashed=1;html=1;startArrow=none;" edge="1" parent="1">
                    <mxGeometry width="50" height="50" relative="1" as="geometry">
                        <mxPoint x="538.49" y="310" as="sourcePoint"/>
                        <mxPoint x="538.49" y="260" as="targetPoint"/>
                    </mxGeometry>
                </mxCell>
                <mxCell id="87" value="" style="rounded=0;whiteSpace=wrap;html=1;" vertex="1" parent="1">
                    <mxGeometry x="310" y="560" width="20" height="140" as="geometry"/>
                </mxCell>
                <mxCell id="89" value="" style="rounded=0;whiteSpace=wrap;html=1;" vertex="1" parent="1">
                    <mxGeometry x="769.44" y="560" width="20" height="100" as="geometry"/>
                </mxCell>
                <mxCell id="90" value="" style="endArrow=classic;html=1;exitX=0.986;exitY=0.092;exitDx=0;exitDy=0;exitPerimeter=0;entryX=1.176;entryY=0.892;entryDx=0;entryDy=0;entryPerimeter=0;" edge="1" parent="1" source="89" target="89">
                    <mxGeometry width="50" height="50" relative="1" as="geometry">
                        <mxPoint x="809.44" y="570" as="sourcePoint"/>
                        <mxPoint x="799.44" y="650" as="targetPoint"/>
                        <Array as="points">
                            <mxPoint x="889.44" y="570"/>
                            <mxPoint x="889.44" y="610"/>
                            <mxPoint x="889.44" y="649"/>
                        </Array>
                    </mxGeometry>
                </mxCell>
                <mxCell id="91" value="" style="endArrow=classic;html=1;exitX=1;exitY=0.065;exitDx=0;exitDy=0;exitPerimeter=0;entryX=0;entryY=0.091;entryDx=0;entryDy=0;entryPerimeter=0;" edge="1" parent="1" target="89" source="87">
                    <mxGeometry width="50" height="50" relative="1" as="geometry">
                        <mxPoint x="570.5600000000001" y="569.38" as="sourcePoint"/>
                        <mxPoint x="699.4399999999999" y="580" as="targetPoint"/>
                    </mxGeometry>
                </mxCell>
                <mxCell id="92" value="traitePositionLivreur()" style="text;html=1;align=center;verticalAlign=middle;resizable=0;points=[];autosize=1;strokeColor=none;fillColor=none;" vertex="1" parent="1">
                    <mxGeometry x="890" y="600" width="130" height="20" as="geometry"/>
                </mxCell>
                <mxCell id="93" value="envoieInfosPosition" style="text;html=1;align=center;verticalAlign=middle;resizable=0;points=[];autosize=1;strokeColor=none;fillColor=none;" vertex="1" parent="1">
                    <mxGeometry x="489.99999999999994" y="550" width="120" height="20" as="geometry"/>
                </mxCell>
                <mxCell id="94" value="" style="endArrow=classic;html=1;exitX=-0.036;exitY=0.893;exitDx=0;exitDy=0;exitPerimeter=0;entryX=1.142;entryY=0.639;entryDx=0;entryDy=0;entryPerimeter=0;" edge="1" parent="1" source="89" target="87">
                    <mxGeometry width="50" height="50" relative="1" as="geometry">
                        <mxPoint x="590.66" y="579.1" as="sourcePoint"/>
                        <mxPoint x="573.66" y="649.3199999999999" as="targetPoint"/>
                    </mxGeometry>
                </mxCell>
                <mxCell id="95" value="retourneCoordonnéesLivraison()" style="text;html=1;align=center;verticalAlign=middle;resizable=0;points=[];autosize=1;strokeColor=none;fillColor=none;" vertex="1" parent="1">
                    <mxGeometry x="454.99999999999994" y="630" width="190" height="20" as="geometry"/>
                </mxCell>
                <mxCell id="96" value="" style="endArrow=none;dashed=1;html=1;startArrow=none;" edge="1" parent="1">
                    <mxGeometry width="50" height="50" relative="1" as="geometry">
                        <mxPoint x="779.1500000000001" y="560" as="sourcePoint"/>
                        <mxPoint x="779" y="270" as="targetPoint"/>
                    </mxGeometry>
                </mxCell>
                <mxCell id="98" value="" style="endArrow=none;dashed=1;html=1;entryX=0.5;entryY=1;entryDx=0;entryDy=0;exitX=0.465;exitY=-0.01;exitDx=0;exitDy=0;exitPerimeter=0;" edge="1" parent="1" source="102">
                    <mxGeometry width="50" height="50" relative="1" as="geometry">
                        <mxPoint x="139.5" y="750" as="sourcePoint"/>
                        <mxPoint x="139.91" y="269.9999999999998" as="targetPoint"/>
                    </mxGeometry>
                </mxCell>
                <mxCell id="99" value="&lt;font style=&quot;font-size: 12px&quot; face=&quot;Helvetica&quot; color=&quot;#ffffff&quot;&gt;&lt;span id=&quot;docs-internal-guid-d50050bc-7fff-994a-3e60-8d328730251a&quot; style=&quot;background-color: transparent ; font-style: normal ; font-variant: normal ; text-decoration: none ; vertical-align: baseline&quot;&gt;:Client&lt;br&gt;&lt;/span&gt;&lt;/font&gt;" style="shape=umlActor;verticalLabelPosition=bottom;verticalAlign=top;html=1;" vertex="1" parent="1">
                    <mxGeometry x="1080" y="160" width="40" height="80" as="geometry"/>
                </mxCell>
                <mxCell id="100" value="" style="endArrow=none;dashed=1;html=1;startArrow=none;exitX=0.5;exitY=0;exitDx=0;exitDy=0;" edge="1" parent="1" source="101">
                    <mxGeometry width="50" height="50" relative="1" as="geometry">
                        <mxPoint x="1099" y="720" as="sourcePoint"/>
                        <mxPoint x="1099" y="270" as="targetPoint"/>
                    </mxGeometry>
                </mxCell>
                <mxCell id="101" value="" style="rounded=0;whiteSpace=wrap;html=1;" vertex="1" parent="1">
                    <mxGeometry x="1090" y="760" width="20" height="140" as="geometry"/>
                </mxCell>
                <mxCell id="102" value="" style="rounded=0;whiteSpace=wrap;html=1;" vertex="1" parent="1">
                    <mxGeometry x="130" y="760" width="20" height="140" as="geometry"/>
                </mxCell>
                <mxCell id="105" value="" style="endArrow=classic;html=1;exitX=1;exitY=0.065;exitDx=0;exitDy=0;exitPerimeter=0;entryX=0;entryY=0.065;entryDx=0;entryDy=0;entryPerimeter=0;" edge="1" parent="1" source="102" target="101">
                    <mxGeometry width="50" height="50" relative="1" as="geometry">
                        <mxPoint x="170.56" y="769.0999999999999" as="sourcePoint"/>
                        <mxPoint x="610" y="769.0999999999999" as="targetPoint"/>
                    </mxGeometry>
                </mxCell>
                <mxCell id="106" value="EnvoiNotificationArrivée" style="text;html=1;align=center;verticalAlign=middle;resizable=0;points=[];autosize=1;strokeColor=none;fillColor=none;" vertex="1" parent="1">
                    <mxGeometry x="320.55999999999995" y="750" width="140" height="20" as="geometry"/>
                </mxCell>
                <mxCell id="107" value="" style="endArrow=classic;html=1;exitX=-0.15;exitY=0.643;exitDx=0;exitDy=0;exitPerimeter=0;entryX=1.15;entryY=0.636;entryDx=0;entryDy=0;entryPerimeter=0;" edge="1" parent="1" source="101" target="102">
                    <mxGeometry width="50" height="50" relative="1" as="geometry">
                        <mxPoint x="609.28" y="849.3" as="sourcePoint"/>
                        <mxPoint x="173.39999999999992" y="849.46" as="targetPoint"/>
                    </mxGeometry>
                </mxCell>
                <mxCell id="108" value="ValideRéceptionCommande" style="text;html=1;align=center;verticalAlign=middle;resizable=0;points=[];autosize=1;strokeColor=none;fillColor=none;" vertex="1" parent="1">
                    <mxGeometry x="310.55999999999995" y="830" width="160" height="20" as="geometry"/>
                </mxCell>
                <mxCell id="110" value="" style="endArrow=classic;html=1;exitX=0.986;exitY=0.092;exitDx=0;exitDy=0;exitPerimeter=0;entryX=1.176;entryY=0.892;entryDx=0;entryDy=0;entryPerimeter=0;" edge="1" parent="1">
                    <mxGeometry width="50" height="50" relative="1" as="geometry">
                        <mxPoint x="1110" y="770" as="sourcePoint"/>
                        <mxPoint x="1113.8" y="850" as="targetPoint"/>
                        <Array as="points">
                            <mxPoint x="1210.28" y="770.8"/>
                            <mxPoint x="1210.28" y="810.8"/>
                            <mxPoint x="1210.28" y="849.8"/>
                        </Array>
                    </mxGeometry>
                </mxCell>
                <mxCell id="111" value="traiteTraiteValiditéCommande()" style="text;html=1;align=center;verticalAlign=middle;resizable=0;points=[];autosize=1;strokeColor=none;fillColor=none;" vertex="1" parent="1">
                    <mxGeometry x="1210" y="800.8" width="180" height="20" as="geometry"/>
                </mxCell>
                <mxCell id="114" value="Ajout d'un plat du jour" style="shape=umlFrame;whiteSpace=wrap;html=1;width=80;height=50;" vertex="1" parent="1">
                    <mxGeometry x="80" y="60" width="1320" height="890" as="geometry"/>
                </mxCell>
            </root>
        </mxGraphModel>
    </diagram>
</mxfile>